<svg width="981" height="981" viewBox="-50 -10 201 201" xmlns="http://www.w3.org/2000/svg" preserveAspectRatio="xMidYMid">
  <path d="M83.145 0H56.264C29.382 0 6.252 20.005 6.252 58.764c0 23.131 11.252 40.635 30.632 49.387L.625 173.167c-1.25 1.876 0 3.751 1.876 3.751H19.38c1.25 0 2.5-.625 3.125-1.875l33.134-63.766h11.877v63.766c0 .625.626 1.875 1.876 1.875h15.004c1.25 0 1.875-.625 1.875-1.875V2.5C85.646.625 85.021 0 83.145 0zM67.516 96.274H57.514c-43.135 0-40.01-81.27-1.875-81.27h12.503v81.27h-.626z" fill="#F00"/>
</svg>
